<svg xmlns="http://www.w3.org/2000/svg" width="78" height="93" viewBox="0 0 78 93" fill="none"><path d="M40.3 32.1391L29.8133 21.6279H54.1667V36.7674H60.6667V15.1395H29.8133L40.3 4.62837L35.7067 0L17.3333 18.3837L35.7067 36.7674L40.3 32.1391ZM39 54.0698C36.4288 54.0698 33.9154 54.8308 31.7776 56.2567C29.6397 57.6826 27.9735 59.7093 26.9896 62.0805C26.0056 64.4517 25.7482 67.0609 26.2498 69.5782C26.7514 72.0954 27.9895 74.4076 29.8076 76.2225C31.6257 78.0373 33.9421 79.2732 36.4638 79.7739C38.9856 80.2746 41.5994 80.0176 43.9749 79.0355C46.3503 78.0533 48.3806 76.39 49.8091 74.256C51.2376 72.122 52 69.6131 52 67.0465C52 63.6049 50.6304 60.3042 48.1924 57.8706C45.7544 55.437 42.4478 54.0698 39 54.0698ZM0 41.093V93H78V41.093M69.3333 75.6977C67.0348 75.6977 64.8304 76.6091 63.2051 78.2315C61.5798 79.854 60.6667 82.0544 60.6667 84.3488H17.3333C17.3333 82.0544 16.4202 79.854 14.7949 78.2315C13.1696 76.6091 10.9652 75.6977 8.66667 75.6977V58.3954C10.9652 58.3954 13.1696 57.4839 14.7949 55.8615C16.4202 54.2391 17.3333 52.0386 17.3333 49.7442H60.6667C60.6667 52.0386 61.5798 54.2391 63.2051 55.8615C64.8304 57.4839 67.0348 58.3954 69.3333 58.3954V75.6977Z" fill="#EEEEEE"></path></svg>