<svg xmlns="http://www.w3.org/2000/svg" width="241" height="32" viewBox="0 0 241 32" fill="none"><path d="M0 5.00001C0 2.23858 2.23858 0 5 0H48.1973C50.9587 0 53.1973 2.23858 53.1973 5V26.4348C53.1973 29.1962 50.9587 31.4348 48.1973 31.4348H5.00001C2.23858 31.4348 0 29.1962 0 26.4348V5.00001Z" fill="#EEEEEE"></path><path d="M61.6605 5.00001C61.6605 2.23858 63.8991 0 66.6605 0H109.858C112.619 0 114.858 2.23858 114.858 5V26.4348C114.858 29.1962 112.619 31.4348 109.858 31.4348H66.6605C63.8991 31.4348 61.6605 29.1962 61.6605 26.4348V5.00001Z" fill="#EEEEEE"></path><path d="M123.724 5.00001C123.724 2.23858 125.963 0 128.724 0H171.921C174.683 0 176.921 2.23858 176.921 5V26.4348C176.921 29.1962 174.683 31.4348 171.921 31.4348H128.724C125.963 31.4348 123.724 29.1962 123.724 26.4348V5.00001Z" fill="#EEEEEE"></path><path d="M187.803 5.00001C187.803 2.23858 190.041 0 192.803 0H236C238.761 0 241 2.23858 241 5V26.4348C241 29.1962 238.761 31.4348 236 31.4348H192.803C190.041 31.4348 187.803 29.1962 187.803 26.4348V5.00001Z" fill="#EEEEEE"></path><path d="M209.132 14.6326C209.015 15.5112 208.312 15.5112 207.668 15.5112H207.316L207.609 13.8125C207.609 13.6954 207.726 13.6368 207.844 13.6368H208.019C208.488 13.6368 208.898 13.6368 209.132 13.8711C209.132 14.1054 209.132 14.3397 209.132 14.6326ZM208.839 12.2896H206.321C206.145 12.2896 206.028 12.4067 205.969 12.5824L204.973 19.0257C204.973 19.1428 205.032 19.26 205.208 19.26H206.379C206.555 19.26 206.672 19.1428 206.731 18.9671L207.023 17.2099C207.023 17.0341 207.199 16.917 207.375 16.917H208.195C209.835 16.917 210.772 16.0969 211.065 14.5154C211.182 13.8125 211.065 13.2853 210.772 12.8753C210.304 12.5239 209.659 12.2896 208.839 12.2896Z" fill="#263577"></path><path d="M214.638 16.9753C214.521 17.6782 213.994 18.1468 213.291 18.1468C212.94 18.1468 212.647 18.0296 212.471 17.7953C212.295 17.561 212.237 17.2682 212.295 16.9753C212.412 16.2724 212.94 15.8038 213.642 15.8038C213.994 15.8038 214.287 15.9209 214.462 16.1552C214.58 16.331 214.697 16.6238 214.638 16.9753ZM216.278 14.6323H215.107C214.99 14.6323 214.931 14.6909 214.872 14.808L214.814 15.1595L214.755 15.0423C214.521 14.6909 213.935 14.5151 213.35 14.5151C212.002 14.5151 210.889 15.5109 210.655 16.9167C210.538 17.6196 210.714 18.2639 211.124 18.7325C211.475 19.1426 212.002 19.3183 212.647 19.3183C213.701 19.3183 214.287 18.6154 214.287 18.6154L214.228 18.9668C214.228 19.084 214.287 19.2012 214.462 19.2012H215.517C215.693 19.2012 215.81 19.084 215.868 18.9083L216.513 14.808C216.513 14.7494 216.454 14.6323 216.278 14.6323Z" fill="#263577"></path><path d="M222.663 14.6328H221.433C221.316 14.6328 221.199 14.6914 221.14 14.8085L219.5 17.2687L218.797 14.9257C218.738 14.75 218.621 14.6914 218.446 14.6914H217.274C217.157 14.6914 217.04 14.8085 217.098 14.9843L218.446 18.8502L217.215 20.6075C217.098 20.7246 217.215 20.9589 217.391 20.9589H218.621C218.738 20.9589 218.856 20.9004 218.914 20.7832L222.897 14.9843C222.956 14.8085 222.839 14.6328 222.663 14.6328Z" fill="#263577"></path><path d="M226.939 14.6326C226.822 15.5112 226.119 15.5112 225.475 15.5112H225.123L225.416 13.8125C225.416 13.6954 225.533 13.6368 225.65 13.6368H225.826C226.295 13.6368 226.705 13.6368 226.939 13.8711C226.998 14.1054 226.998 14.3397 226.939 14.6326ZM226.646 12.2896H224.127C223.952 12.2896 223.835 12.4067 223.776 12.5824L222.78 19.0257C222.78 19.1428 222.839 19.26 223.015 19.26H224.303C224.42 19.26 224.537 19.2014 224.537 19.0257L224.83 17.2099C224.83 17.0341 225.006 16.917 225.182 16.917H226.002C227.642 16.917 228.579 16.0969 228.872 14.5154C228.989 13.8125 228.872 13.2853 228.579 12.8753C228.169 12.5239 227.525 12.2896 226.646 12.2896Z" fill="#2199D6"></path><path d="M232.504 16.9753C232.387 17.6782 231.859 18.1468 231.156 18.1468C230.805 18.1468 230.512 18.0296 230.336 17.7953C230.161 17.561 230.102 17.2682 230.161 16.9753C230.278 16.2724 230.805 15.8038 231.508 15.8038C231.859 15.8038 232.152 15.9209 232.328 16.1552C232.445 16.331 232.562 16.6238 232.504 16.9753ZM234.144 14.6323H232.972C232.855 14.6323 232.797 14.6909 232.738 14.808L232.679 15.1595L232.621 15.0423C232.387 14.6909 231.801 14.5151 231.215 14.5151C229.868 14.5151 228.755 15.5109 228.521 16.9167C228.403 17.6196 228.579 18.2639 228.989 18.7325C229.341 19.1426 229.868 19.3183 230.512 19.3183C231.566 19.3183 232.152 18.6154 232.152 18.6154L232.094 18.9668C232.094 19.084 232.152 19.2012 232.328 19.2012H233.382C233.558 19.2012 233.675 19.084 233.734 18.9083L234.378 14.808C234.378 14.7494 234.261 14.6323 234.144 14.6323Z" fill="#2199D6"></path><path d="M235.55 12.4653L234.495 19.0257C234.495 19.1428 234.554 19.26 234.729 19.26H235.784C235.96 19.26 236.077 19.1428 236.135 18.9671L237.131 12.5239C237.131 12.4067 237.072 12.2896 236.897 12.2896H235.725C235.667 12.2896 235.608 12.4067 235.55 12.4653Z" fill="#2199D6"></path><path d="M194.547 20.4899L194.723 19.2598H194.313H192.263L193.668 10.2978C193.668 10.2978 193.668 10.2393 193.727 10.2393H193.785H197.241C198.354 10.2393 199.174 10.4736 199.584 10.9422C199.76 11.1765 199.877 11.4108 199.936 11.6451C199.994 11.9379 199.994 12.2308 199.936 12.6408V12.8751L200.112 12.9923C200.287 13.0509 200.404 13.168 200.522 13.2852C200.697 13.4609 200.814 13.6952 200.814 13.9881C200.873 14.2809 200.873 14.6324 200.756 15.0424C200.639 15.511 200.522 15.8625 200.346 16.2139C200.17 16.5068 199.936 16.7411 199.702 16.9754C199.467 17.1511 199.116 17.2683 198.823 17.3854C198.471 17.444 198.12 17.5026 197.71 17.5026H197.417C197.241 17.5026 197.066 17.5611 196.89 17.6783C196.773 17.7954 196.656 17.9712 196.597 18.1469V18.2641L196.246 20.4313V20.4899V20.5485C196.246 20.5485 196.246 20.5485 196.187 20.5485H194.547V20.4899Z" fill="#263577"></path><path d="M200.346 12.6411C200.346 12.6997 200.346 12.7583 200.287 12.8168C199.819 15.1598 198.296 15.9213 196.304 15.9213H195.308C195.074 15.9213 194.84 16.097 194.84 16.3313L194.313 19.6116L194.195 20.5488C194.195 20.7245 194.313 20.8416 194.43 20.8416H196.246C196.48 20.8416 196.656 20.6659 196.656 20.4902V20.373L197.007 18.2643V18.1472C197.066 17.9129 197.241 17.7957 197.417 17.7957H197.71C199.467 17.7957 200.814 17.0928 201.166 15.0427C201.342 14.1641 201.225 13.4612 200.814 12.9926C200.697 12.8754 200.522 12.7583 200.346 12.6411Z" fill="#2199D6"></path><path d="M199.877 12.4653C199.819 12.4653 199.76 12.4067 199.643 12.4067C199.584 12.4067 199.467 12.3481 199.409 12.3481C199.116 12.2895 198.823 12.2896 198.53 12.2896H195.836C195.777 12.2896 195.718 12.2895 195.66 12.3481C195.543 12.4067 195.426 12.5239 195.426 12.641L194.84 16.2727V16.3898C194.898 16.1555 195.074 15.9798 195.308 15.9798H196.304C198.296 15.9798 199.819 15.1597 200.287 12.8753C200.287 12.8167 200.287 12.7582 200.346 12.6996C200.229 12.641 200.112 12.5824 199.994 12.5239C199.936 12.4653 199.877 12.4653 199.877 12.4653Z" fill="#252C5E"></path><path d="M195.426 12.6407C195.426 12.5236 195.543 12.4064 195.66 12.3478C195.718 12.3478 195.777 12.2893 195.836 12.2893H198.53C198.823 12.2893 199.174 12.2893 199.409 12.3478C199.467 12.3478 199.584 12.3479 199.643 12.4064C199.702 12.4064 199.76 12.465 199.877 12.465C199.936 12.465 199.936 12.465 199.994 12.5236C200.112 12.5822 200.229 12.6407 200.346 12.6993C200.463 11.8207 200.346 11.2349 199.877 10.7077C199.35 10.122 198.413 9.8877 197.241 9.8877H193.786C193.551 9.8877 193.317 10.0634 193.317 10.2977L191.911 19.3183C191.911 19.494 192.028 19.6697 192.204 19.6697H194.313L194.84 16.2724L195.426 12.6407Z" fill="#263577"></path><path d="M167.192 9.47705H164.674C163.912 9.47705 163.326 9.71135 162.975 10.4728L158.172 21.4264H161.569C161.569 21.4264 162.155 19.962 162.272 19.6106C162.623 19.6106 165.962 19.6106 166.431 19.6106C166.548 20.0206 166.841 21.3678 166.841 21.3678H169.887L167.192 9.47705ZM163.209 17.1504C163.502 16.4475 164.498 13.8116 164.498 13.8116C164.498 13.8702 164.791 13.1087 164.908 12.6987L165.142 13.753C165.142 13.753 165.786 16.6232 165.904 17.209H163.209V17.1504Z" fill="#3362AB"></path><path d="M158.406 17.5018C158.406 19.9619 156.18 21.602 152.724 21.602C151.26 21.602 149.854 21.3092 149.093 20.9577L149.561 18.2633L149.971 18.439C151.026 18.9076 151.728 19.0833 153.017 19.0833C153.954 19.0833 154.95 18.7319 154.95 17.9118C154.95 17.3846 154.54 17.0332 153.251 16.4474C152.021 15.8617 150.381 14.9245 150.381 13.2258C150.381 10.8828 152.666 9.30127 155.887 9.30127C157.117 9.30127 158.172 9.53557 158.816 9.82845L158.347 12.4058L158.113 12.1715C157.527 11.9372 156.766 11.7029 155.653 11.7029C154.423 11.7614 153.837 12.2886 153.837 12.7572C153.837 13.2844 154.54 13.6944 155.653 14.2216C157.527 15.1002 158.406 16.096 158.406 17.5018Z" fill="#3362AB"></path><path d="M129.821 9.59416L129.88 9.35986H134.917C135.62 9.35986 136.147 9.59416 136.323 10.3556L137.436 15.6274C136.323 12.8158 133.746 10.5314 129.821 9.59416Z" fill="#F9B50B"></path><path d="M144.524 9.47703L139.428 21.3678H135.972L133.043 11.41C135.152 12.7572 136.909 14.8659 137.553 16.3303L137.905 17.5604L141.068 9.41846H144.524V9.47703Z" fill="#3362AB"></path><path d="M145.871 9.41846H149.093L147.042 21.3678H143.821L145.871 9.41846Z" fill="#3362AB"></path><path d="M25.3119 15.5576V20.3653H23.7761V8.4925H27.8493C28.3355 8.48241 28.8189 8.56805 29.2716 8.74446C29.7243 8.92087 30.1374 9.18458 30.4869 9.52034C30.84 9.83573 31.121 10.2225 31.311 10.6547C31.5011 11.0869 31.5958 11.5545 31.5887 12.026C31.5988 12.5001 31.5056 12.9707 31.3154 13.4057C31.1253 13.8406 30.8426 14.2296 30.4869 14.5459C29.7747 15.2204 28.8955 15.5573 27.8493 15.5567H25.3119V15.5576ZM25.3119 9.95422V14.0988H27.8875C28.1698 14.1071 28.4508 14.0568 28.7125 13.9511C28.9742 13.8454 29.2108 13.6866 29.4071 13.4849C29.6024 13.2963 29.7577 13.0708 29.8637 12.8216C29.9697 12.5724 30.0243 12.3046 30.0243 12.0341C30.0243 11.7635 29.9697 11.4958 29.8637 11.2466C29.7577 10.9974 29.6024 10.7718 29.4071 10.5832C29.2132 10.3773 28.9775 10.2146 28.7155 10.106C28.4535 9.99742 28.1713 9.94535 27.8875 9.95327H25.3119V9.95422Z" fill="#5F6368"></path><path d="M35.1279 11.9766C36.263 11.9766 37.1591 12.2778 37.816 12.8803C38.473 13.4828 38.8011 14.3089 38.8005 15.3585V20.3651H37.3314V19.2378H37.2647C36.6287 20.1662 35.7829 20.6304 34.7272 20.6304C33.8261 20.6304 33.0722 20.3651 32.4655 19.8346C32.1743 19.5911 31.9415 19.2862 31.7841 18.942C31.6267 18.5979 31.5485 18.2232 31.5554 17.8452C31.5554 17.0046 31.8753 16.3362 32.5151 15.8398C33.1548 15.3434 34.0089 15.0945 35.0773 15.0933C35.9893 15.0933 36.7403 15.259 37.3305 15.5906V15.242C37.3322 14.9843 37.2762 14.7295 37.1665 14.496C37.0568 14.2625 36.8961 14.0562 36.6961 13.8921C36.29 13.5282 35.7607 13.3296 35.2137 13.336C34.3558 13.336 33.6769 13.6953 33.1771 14.414L31.8244 13.5681C32.5685 12.5071 33.6696 11.9766 35.1279 11.9766ZM33.1408 17.8784C33.1398 18.0725 33.1855 18.2641 33.2741 18.4371C33.3627 18.6101 33.4917 18.7596 33.6502 18.8731C33.9899 19.1384 34.4115 19.279 34.8436 19.271C35.4917 19.2699 36.1129 19.0137 36.5712 18.5586C37.0799 18.083 37.3343 17.525 37.3343 16.8847C36.8554 16.5057 36.1877 16.3163 35.3311 16.3163C34.7072 16.3163 34.187 16.4656 33.7704 16.7643C33.3497 17.0675 33.1408 17.436 33.1408 17.8784Z" fill="#5F6368"></path><path d="M47.2331 12.2417L42.1048 23.9459H40.5193L42.4224 19.8506L39.0503 12.2417H40.7197L43.1569 18.0772H43.1903L45.5608 12.2417H47.2331Z" fill="#5F6368"></path><path d="M19.1056 14.5212C19.1062 14.0564 19.0666 13.5924 18.9873 13.1343H12.5102V15.7612H16.22C16.1441 16.1808 15.9834 16.5807 15.7477 16.9369C15.5119 17.2932 15.206 17.5983 14.8483 17.834V19.5391H17.0623C18.3587 18.3521 19.1056 16.5968 19.1056 14.5212Z" fill="#4285F4"></path><path d="M12.5103 21.1867C14.3637 21.1867 15.9244 20.5823 17.0624 19.5403L14.8483 17.8351C14.2321 18.25 13.4384 18.4868 12.5103 18.4868C10.7188 18.4868 9.19823 17.2875 8.6545 15.6714H6.37366V17.4287C6.94531 18.5583 7.82189 19.508 8.90551 20.1716C9.98914 20.8352 11.2372 21.1867 12.5103 21.1867Z" fill="#34A853"></path><path d="M8.6544 15.6713C8.36695 14.8245 8.36695 13.9074 8.6544 13.0605V11.3032H6.37356C5.89266 12.2535 5.64221 13.3024 5.64221 14.3659C5.64221 15.4295 5.89266 16.4783 6.37356 17.4286L8.6544 15.6713Z" fill="#FBBC04"></path><path d="M12.5103 10.2448C13.4897 10.2289 14.4362 10.5964 15.145 11.2679L17.1053 9.32112C15.8623 8.16166 14.2155 7.5251 12.5103 7.54488C11.2372 7.54494 9.98914 7.89639 8.90551 8.56C7.82189 9.22361 6.94531 10.1733 6.37366 11.3029L8.6545 13.0602C9.19823 11.4441 10.7188 10.2448 12.5103 10.2448Z" fill="#EA4335"></path><path d="M107.563 15.4524C107.563 21.72 102.467 26.8746 96.1407 26.8746C89.8732 26.8746 84.7186 21.72 84.7186 15.4524C84.7186 9.18489 89.8146 4.03027 96.0821 4.03027C102.467 4.03027 107.563 9.18489 107.563 15.4524Z" fill="#F9B50B"></path><path d="M92.2747 15.511C92.2747 14.6909 92.1576 13.8709 92.0404 13.1094H85.0114C85.07 12.6994 85.1872 12.3479 85.3043 11.8793H91.5718C91.4547 11.4693 91.279 11.0593 91.1032 10.6493H85.7729C85.9486 10.2392 86.1829 9.88779 86.4172 9.41919H90.4589C90.2246 9.00916 89.9317 8.59913 89.5803 8.18911H87.3544C87.7059 7.77908 88.0573 7.42763 88.5259 7.01761C86.5344 5.1432 83.8399 4.03027 80.8526 4.03027C74.6436 4.206 69.489 9.18489 69.489 15.4524C69.489 21.72 74.5851 26.8746 80.9112 26.8746C83.8985 26.8746 86.5344 25.7031 88.5845 23.8872C88.9945 23.5358 89.346 23.1258 89.756 22.6572H87.413C87.1201 22.3057 86.8273 21.8957 86.593 21.4857H90.5761C90.8104 21.1342 91.0447 20.7242 91.2204 20.2556H85.8901C85.7143 19.9041 85.5386 19.4941 85.4215 19.0255H91.689C92.0404 17.9712 92.2747 16.7997 92.2747 15.511Z" fill="#C8191C"></path><path d="M84.9529 18.3811L85.1286 17.3268C85.07 17.3268 84.9529 17.3853 84.8357 17.3853C84.4257 17.3853 84.3671 17.151 84.4257 17.0339L84.7771 14.9252H85.4215L85.5972 13.7537H85.0114L85.1286 13.0508H83.8985C83.8985 13.0508 83.1956 17.0339 83.1956 17.5025C83.1956 18.2054 83.6056 18.5568 84.1914 18.5568C84.5428 18.5568 84.8357 18.4397 84.9529 18.3811Z" fill="white"></path><path d="M85.3629 16.4487C85.3629 18.1474 86.5344 18.5574 87.4716 18.5574C88.3502 18.5574 88.7602 18.3817 88.7602 18.3817L88.9945 17.2102C88.9945 17.2102 88.3502 17.5031 87.7059 17.5031C86.3586 17.5031 86.5929 16.5073 86.5929 16.5073H89.0531C89.0531 16.5073 89.2288 15.7458 89.2288 15.3943C89.2288 14.6329 88.8188 13.6371 87.4716 13.6371C86.3001 13.5785 85.3629 14.9257 85.3629 16.4487ZM87.4716 14.6914C88.1159 14.6914 87.9987 15.4529 87.9987 15.5115H86.6515C86.7101 15.4529 86.8272 14.6914 87.4716 14.6914Z" fill="white"></path><path d="M95.1449 18.3814L95.3792 17.0342C95.3792 17.0342 94.7934 17.3271 94.3248 17.3271C93.5048 17.3271 93.0947 16.6827 93.0947 15.9213C93.0947 14.4569 93.7976 13.6954 94.6763 13.6954C95.262 13.6954 95.7892 14.0469 95.7892 14.0469L95.9649 12.7582C95.9649 12.7582 95.262 12.4653 94.5591 12.4653C93.1533 12.4653 91.8061 13.6954 91.8061 15.9798C91.8061 17.5028 92.509 18.4986 93.9734 18.4986C94.5005 18.5571 95.1449 18.3814 95.1449 18.3814Z" fill="white"></path><path d="M78.3338 13.5781C77.5138 13.5781 76.8694 13.8124 76.8694 13.8124L76.6937 14.8668C76.6937 14.8668 77.2209 14.6325 78.0409 14.6325C78.451 14.6325 78.8024 14.6911 78.8024 15.0425C78.8024 15.2768 78.7438 15.3354 78.7438 15.3354H78.2167C77.1623 15.3354 76.0494 15.7454 76.0494 17.1512C76.0494 18.2641 76.7523 18.4984 77.2209 18.4984C78.0409 18.4984 78.451 17.9713 78.5095 17.9713L78.451 18.4399H79.4467L79.9153 15.1011C79.9153 13.6367 78.7438 13.5781 78.3338 13.5781ZM78.5681 16.2726C78.5681 16.4483 78.451 17.4441 77.7481 17.4441C77.3966 17.4441 77.2795 17.1512 77.2795 16.9755C77.2795 16.6826 77.4552 16.2726 78.3924 16.2726C78.5095 16.2726 78.5681 16.2726 78.5681 16.2726Z" fill="white"></path><path d="M81.0869 18.4989C81.3798 18.4989 82.9027 18.5575 82.9027 16.9174C82.9027 15.3944 81.4383 15.6873 81.4383 15.1015C81.4383 14.8087 81.6726 14.6915 82.0827 14.6915C82.2584 14.6915 82.9027 14.7501 82.9027 14.7501L83.0784 13.6372C83.0784 13.6372 82.6684 13.52 81.9069 13.52C81.0283 13.52 80.0911 13.8715 80.0911 15.1015C80.0911 16.5074 81.6141 16.3902 81.6141 16.9174C81.6141 17.2688 81.204 17.3274 80.9112 17.3274C80.384 17.3274 79.7982 17.1517 79.7982 17.1517L79.6225 18.2646C79.7396 18.3818 80.0911 18.4989 81.0869 18.4989Z" fill="white"></path><path d="M105.22 12.6411L104.985 14.2812C104.985 14.2812 104.517 13.6955 103.814 13.6955C102.701 13.6955 101.764 15.0427 101.764 16.6242C101.764 17.62 102.232 18.6158 103.287 18.6158C103.99 18.6158 104.458 18.1472 104.458 18.1472L104.4 18.5572H105.63L106.508 12.7583L105.22 12.6411ZM104.634 15.8042C104.634 16.4485 104.341 17.3271 103.638 17.3271C103.228 17.3271 102.994 16.9757 102.994 16.3313C102.994 15.3356 103.404 14.7498 103.99 14.7498C104.4 14.8084 104.634 15.1013 104.634 15.8042Z" fill="white"></path><path d="M71.7149 18.4401L72.4178 14.1055L72.535 18.4401H73.355L74.9365 14.1055L74.2922 18.4401H75.5809L76.5766 12.6411H74.5851L73.355 16.2142L73.2964 12.6411H71.5392L70.5434 18.4401H71.7149Z" fill="white"></path><path d="M90.459 18.4399C90.8104 16.4483 90.869 14.8082 91.7476 15.1011C91.8648 14.3396 92.0405 13.9882 92.1577 13.6953H91.9234C91.3962 13.6953 90.9276 14.3982 90.9276 14.3982L91.0447 13.7539H89.8732L89.1118 18.4399H90.459Z" fill="white"></path><path d="M97.9565 13.5781C97.1364 13.5781 96.4921 13.8124 96.4921 13.8124L96.3164 14.8668C96.3164 14.8668 96.8436 14.6325 97.6636 14.6325C98.0736 14.6325 98.4251 14.6911 98.4251 15.0425C98.4251 15.2768 98.3665 15.3354 98.3665 15.3354H97.8393C96.785 15.3354 95.6721 15.7454 95.6721 17.1512C95.6721 18.2641 96.375 18.4984 96.8436 18.4984C97.6636 18.4984 98.0736 17.9713 98.1322 17.9713L98.0736 18.4399H99.1866L99.6552 15.1011C99.6552 13.6367 98.3665 13.5781 97.9565 13.5781ZM98.2494 16.2726C98.2494 16.4483 98.1322 17.4441 97.4293 17.4441C97.0779 17.4441 96.9607 17.1512 96.9607 16.9755C96.9607 16.6826 97.1364 16.2726 98.0736 16.2726C98.1908 16.2726 98.1908 16.2726 98.2494 16.2726Z" fill="white"></path><path d="M100.592 18.4399C100.944 16.4483 101.002 14.8082 101.881 15.1011C101.998 14.3396 102.174 13.9882 102.291 13.6953H102.057C101.53 13.6953 101.061 14.3982 101.061 14.3982L101.178 13.7539H100.007L99.2452 18.4399H100.592Z" fill="white"></path></svg>