<svg xmlns="http://www.w3.org/2000/svg" width="78" height="96" viewBox="0 0 78 96" fill="none"><path d="M78 43.6364C78 67.8545 61.36 90.5018 39 96C16.64 90.5018 0 67.8545 0 43.6364V17.4545L39 0L78 17.4545V43.6364ZM39 87.2727C55.25 82.9091 69.3333 63.4473 69.3333 44.5964V23.1273L39 9.51273L8.66667 23.1273V44.5964C8.66667 63.4473 22.75 82.9091 39 87.2727ZM51.1333 43.6364V37.0909C51.1333 30.9818 45.0667 26.1818 39 26.1818C32.9333 26.1818 26.8667 30.9818 26.8667 37.0909V43.6364C24.2667 43.6364 21.6667 46.2545 21.6667 48.8727V64.1455C21.6667 67.2 24.2667 69.8182 26.8667 69.8182H50.7C53.7333 69.8182 56.3333 67.2 56.3333 64.5818V49.3091C56.3333 46.2545 53.7333 43.6364 51.1333 43.6364ZM45.5 43.6364H32.5V37.0909C32.5 33.6 35.5333 31.4182 39 31.4182C42.4667 31.4182 45.5 33.6 45.5 37.0909V43.6364Z" fill="#EEEEEE"></path></svg>