<svg xmlns="http://www.w3.org/2000/svg" width="84" height="78" viewBox="0 0 84 78" fill="none"><path d="M70.224 50.8546C71.694 47.2037 72.492 43.2952 72.492 39C72.492 35.9075 72.03 32.9438 71.232 30.1949C68.502 30.8392 65.646 31.1828 62.664 31.1828C49.812 31.1828 38.43 24.6971 31.5 14.6894C27.762 23.967 20.622 31.5264 11.634 35.6498C11.466 36.7236 11.466 37.8833 11.466 39C11.466 47.2816 14.683 55.224 20.4092 61.08C26.1354 66.9359 33.9019 70.2258 42 70.2258C46.41 70.2258 50.652 69.2379 54.474 67.4769C56.868 72.1586 57.96 74.478 57.876 74.478C50.988 76.8403 45.654 78 42 78C31.836 78 22.134 73.9196 14.994 66.5749C10.626 62.1079 7.392 56.6531 5.586 50.7258H0V31.1828H4.578C8.106 13.4009 23.52 0 42 0C52.08 0 61.782 4.0804 68.964 11.4251C74.298 16.837 77.868 23.7522 79.338 31.1828H84V50.4681V50.554V50.7258H83.748L68.796 64.7709L46.536 62.1938V55.0209H66.822L70.224 50.8546ZM30.534 38.0121C31.794 38.0121 33.012 38.5275 33.894 39.4725C34.776 40.3744 35.28 41.62 35.28 42.9086C35.28 44.1971 34.776 45.4427 33.894 46.3447C33.012 47.2467 31.794 47.7621 30.534 47.7621C27.888 47.7621 25.746 45.6145 25.746 42.9086C25.746 40.2026 27.888 38.0121 30.534 38.0121ZM53.424 38.0121C56.07 38.0121 58.17 40.2026 58.17 42.9086C58.17 45.6145 56.07 47.7621 53.424 47.7621C50.778 47.7621 48.636 45.6145 48.636 42.9086C48.636 41.61 49.1404 40.3645 50.0384 39.4463C50.9363 38.528 52.1541 38.0121 53.424 38.0121Z" fill="#EEEEEE"></path></svg>